<?xml version="1.0" encoding="UTF-8" ?>
<!DOCTYPE svg PUBLIC "-//W3C//DTD SVG 1.1//EN" "http://www.w3.org/Graphics/SVG/1.1/DTD/svg11.dtd">
<svg width="1024pt" height="1024pt" viewBox="0 0 1024 1024" version="1.1" xmlns="http://www.w3.org/2000/svg">
<g id="#000000ff">
<path fill="#000000" opacity="1.00" d=" M 504.35 0.00 L 520.63 0.00 C 539.13 0.91 557.66 1.75 576.06 4.05 C 585.76 5.74 595.62 6.56 605.25 8.69 C 671.33 20.66 734.88 46.18 791.16 82.80 C 851.89 122.29 904.12 174.80 943.22 235.79 C 986.68 303.25 1013.78 381.11 1021.65 460.96 C 1022.96 474.74 1023.56 488.57 1024.00 502.40 L 1024.00 520.71 C 1023.37 543.85 1022.14 567.05 1018.22 589.88 C 1006.31 669.87 974.55 746.74 927.11 812.21 C 903.35 844.92 875.85 874.98 845.02 901.14 C 843.59 889.49 843.22 877.74 843.31 866.01 C 843.03 840.41 845.15 814.87 847.67 789.42 C 850.52 764.43 854.96 739.67 859.93 715.02 C 863.50 696.22 867.83 677.55 870.38 658.57 C 872.74 647.55 873.50 636.29 874.60 625.10 C 875.20 617.09 876.83 609.21 877.18 601.18 C 880.51 553.52 880.65 505.39 873.70 458.04 C 867.86 416.64 856.78 375.82 839.20 337.82 C 822.89 302.62 800.93 269.93 773.71 242.24 C 723.15 190.31 655.74 156.10 584.94 141.94 C 576.03 140.50 567.21 138.42 558.20 137.64 C 516.06 133.26 473.07 134.16 431.62 143.44 C 399.80 150.78 368.75 161.72 339.75 176.76 C 297.50 198.43 259.53 228.69 229.76 265.74 C 194.07 309.85 170.48 362.97 158.06 418.14 C 155.26 428.59 154.02 439.37 151.77 449.95 C 149.27 467.92 146.83 485.92 145.99 504.06 C 144.08 538.67 144.85 573.39 147.72 607.92 C 150.33 624.38 150.41 641.18 153.80 657.54 C 156.55 678.23 161.50 698.53 165.14 719.08 C 175.83 769.63 181.59 821.32 181.06 873.02 C 180.75 882.41 180.60 891.83 179.43 901.17 C 97.54 831.68 38.68 735.51 14.09 630.97 C 11.25 620.64 9.84 610.00 7.55 599.55 C 5.67 586.42 3.34 573.33 2.39 560.09 C 1.29 546.64 0.53 533.16 0.00 519.68 L 0.00 504.31 C 1.04 483.82 1.72 463.24 4.90 442.94 C 15.46 363.28 45.53 286.35 91.42 220.40 C 130.50 164.05 181.02 115.68 239.01 79.07 C 300.36 40.30 370.05 14.69 442.00 5.04 C 462.61 1.75 483.53 1.05 504.35 0.00 Z" />
<path fill="#000000" opacity="1.00" d=" M 352.37 500.40 C 354.58 497.93 358.62 497.46 361.09 499.83 C 371.78 508.33 385.11 514.31 398.98 513.81 C 412.56 514.39 425.35 508.02 435.77 499.81 C 438.16 497.63 442.40 498.38 443.71 501.40 C 444.97 503.38 443.90 505.86 442.31 507.30 C 430.37 517.70 414.86 524.05 398.97 524.32 C 382.79 523.92 366.91 517.72 354.44 507.46 C 351.93 505.93 352.37 502.91 352.37 500.40 Z" />
<path fill="#000000" opacity="1.00" d=" M 582.57 498.43 C 584.82 498.37 587.34 498.05 589.08 499.83 C 599.79 508.37 613.17 514.27 627.06 513.86 C 639.83 514.24 652.11 508.76 662.04 501.05 C 664.13 499.31 667.10 497.46 669.75 499.27 C 672.76 500.83 673.01 505.26 670.32 507.28 C 661.35 515.01 650.47 520.69 638.81 523.00 C 618.94 527.20 597.97 520.07 582.48 507.50 C 580.01 506.00 580.31 503.07 580.43 500.59 C 581.14 499.87 581.85 499.15 582.57 498.43 Z" />
<path fill="#000000" opacity="1.00" d=" M 469.58 582.43 C 471.83 582.32 474.25 582.17 476.18 583.58 C 497.29 595.70 525.01 597.97 546.51 585.57 C 548.97 584.31 551.79 581.65 554.67 583.31 C 557.08 584.26 557.49 587.03 557.72 589.30 C 554.24 593.77 548.79 595.76 543.81 598.03 C 537.20 600.96 530.11 602.78 522.92 603.53 C 518.25 604.01 513.55 603.46 508.87 603.62 C 512.91 603.75 516.97 603.88 520.98 604.47 C 503.11 604.54 484.92 600.76 469.55 591.38 C 466.87 590.10 467.37 587.00 467.43 584.57 C 468.14 583.85 468.86 583.14 469.58 582.43 Z" />
<path fill="#000000" opacity="1.00" d=" M 233.46 587.84 C 238.36 601.82 247.02 614.18 256.77 625.21 C 278.68 649.44 307.59 666.29 337.68 678.35 C 342.43 680.51 347.55 681.76 352.22 684.14 C 346.21 687.67 340.56 691.78 335.09 696.10 C 332.72 698.28 329.33 700.39 329.37 704.02 C 328.91 707.48 332.32 709.67 335.11 710.80 C 341.76 713.09 348.78 715.39 355.88 713.84 C 348.78 720.13 340.71 725.28 333.99 732.01 C 331.27 735.03 327.53 738.41 328.60 742.94 C 329.48 744.48 331.11 745.54 332.87 745.77 C 338.40 746.77 344.06 746.14 349.58 745.34 C 351.14 755.19 348.11 764.82 344.98 774.04 C 337.97 796.34 330.04 818.36 320.97 839.92 C 308.26 870.58 293.58 900.36 279.16 930.24 C 274.20 940.24 269.48 950.39 264.31 960.28 C 252.96 954.02 241.87 947.27 231.04 940.14 C 232.04 930.76 233.43 921.43 234.53 912.07 C 235.56 890.41 236.33 868.73 236.35 847.05 C 235.97 811.65 232.72 776.39 231.08 741.05 C 229.48 714.73 227.72 688.38 228.27 662.00 C 228.32 647.65 230.63 633.45 231.22 619.13 C 231.84 608.68 232.57 598.25 233.46 587.84 Z" />
<path fill="#000000" opacity="1.00" d=" M 748.84 642.92 C 766.77 628.42 782.20 610.14 790.87 588.59 C 792.68 605.70 792.87 622.95 794.86 640.05 C 796.98 661.96 796.08 683.99 795.36 705.94 C 794.62 721.65 793.45 737.32 792.60 753.02 C 791.13 784.04 788.33 814.99 787.97 846.05 C 787.99 867.87 788.77 889.69 789.76 911.48 C 791.05 921.03 792.15 930.60 793.31 940.17 C 785.77 945.05 778.20 949.90 770.40 954.36 C 766.94 956.24 763.76 958.68 760.01 959.97 C 758.72 958.44 757.98 956.55 757.19 954.76 C 736.14 911.37 714.33 868.27 696.62 823.37 C 689.04 803.49 682.02 783.38 676.00 762.97 C 674.15 757.28 674.19 751.28 674.72 745.39 C 680.12 746.07 685.61 746.72 691.04 745.88 C 693.02 745.73 694.46 744.26 695.98 743.15 C 695.92 740.64 695.62 738.03 693.88 736.09 C 686.92 727.18 676.98 721.42 668.65 713.97 C 675.88 715.30 682.99 713.00 689.73 710.62 C 692.38 709.45 695.44 707.25 694.94 703.95 C 694.95 700.51 691.87 698.38 689.57 696.34 C 683.97 691.87 678.13 687.68 671.98 684.01 C 699.36 674.10 726.16 661.46 748.84 642.92 Z" />
</g>
</svg>
