<?xml version="1.0" encoding="UTF-8" ?>
<!DOCTYPE svg PUBLIC "-//W3C//DTD SVG 1.1//EN" "http://www.w3.org/Graphics/SVG/1.1/DTD/svg11.dtd">
<svg width="1024pt" height="1024pt" viewBox="0 0 1024 1024" version="1.1" xmlns="http://www.w3.org/2000/svg">
<g id="#000000ff">
<path fill="#000000" opacity="1.00" d=" M 504.34 0.00 L 520.55 0.00 C 537.44 0.78 554.33 1.66 571.15 3.44 C 595.88 6.61 620.50 10.92 644.56 17.50 C 715.88 36.45 782.89 71.27 839.56 118.52 C 894.35 164.08 939.56 221.15 971.12 285.04 C 997.82 338.63 1014.67 397.00 1021.23 456.48 C 1022.79 471.73 1023.54 487.05 1024.00 502.37 L 1024.00 520.72 C 1023.37 543.85 1022.14 567.05 1018.22 589.89 C 1005.93 672.47 972.46 751.71 922.46 818.53 C 899.75 848.76 873.90 876.70 845.01 901.12 C 843.01 885.16 843.25 869.04 843.34 852.99 C 843.98 829.89 845.62 806.79 848.42 783.85 C 853.73 736.81 866.31 691.00 872.70 644.14 C 873.74 635.42 874.36 626.65 875.34 617.93 C 877.88 600.73 878.20 583.31 879.06 565.97 C 879.91 530.94 879.19 495.73 874.07 461.01 C 872.98 449.92 870.39 439.06 868.54 428.09 C 862.72 400.04 854.34 372.50 842.95 346.20 C 826.32 307.79 803.07 272.11 773.70 242.23 C 723.38 190.55 656.38 156.44 585.97 142.13 C 578.57 140.85 571.20 139.39 563.78 138.26 C 515.69 132.70 466.31 133.90 419.36 146.48 C 383.08 155.90 348.05 170.40 316.11 190.09 C 270.56 217.86 231.72 256.58 204.11 302.26 C 177.80 345.50 161.22 394.25 152.91 444.06 C 151.18 451.89 150.44 459.89 149.42 467.84 C 145.80 493.06 145.15 518.59 144.86 544.04 C 145.41 569.23 145.70 594.55 149.26 619.54 C 150.44 632.23 151.27 645.00 153.79 657.52 C 156.56 678.24 161.51 698.57 165.15 719.14 C 170.08 742.54 173.99 766.17 176.72 789.94 C 180.48 826.85 182.96 864.14 179.45 901.16 C 97.73 831.87 38.96 735.97 14.28 631.71 C 11.36 621.17 9.88 610.31 7.57 599.63 C 5.79 587.14 3.54 574.69 2.56 562.09 C 1.35 547.97 0.56 533.82 0.00 519.67 L 0.00 504.41 C 1.04 483.59 1.74 462.67 5.03 442.05 C 16.73 354.65 52.02 270.61 105.78 200.74 C 145.95 148.31 196.37 103.76 253.34 70.35 C 311.11 36.45 375.59 13.94 441.99 5.04 C 462.60 1.75 483.52 1.05 504.34 0.00 Z" />
<path fill="#000000" opacity="1.00" d=" M 320.31 415.78 C 325.82 416.99 331.05 419.12 336.29 421.16 C 333.71 423.45 331.28 425.91 329.01 428.52 C 325.30 424.89 322.55 420.44 320.31 415.78 Z" />
<path fill="#000000" opacity="1.00" d=" M 684.86 422.46 C 689.92 419.84 694.99 417.02 700.60 415.72 C 698.39 420.90 695.94 426.08 692.00 430.21 C 689.66 427.59 687.26 425.02 684.86 422.46 Z" />
<path fill="#000000" opacity="1.00" d=" M 650.35 417.47 C 657.05 416.25 664.05 417.15 670.40 419.52 C 682.11 424.05 691.15 434.70 693.89 446.94 C 696.16 455.74 695.22 465.25 691.63 473.57 C 687.19 483.41 678.50 491.40 668.07 494.40 C 656.60 497.71 643.63 495.24 634.32 487.72 C 621.15 477.33 615.91 458.41 621.47 442.64 C 625.64 429.86 637.06 419.75 650.35 417.47 M 646.50 431.64 C 642.95 432.46 638.94 433.94 637.29 437.46 C 636.08 440.56 638.84 443.34 641.41 444.60 C 647.85 447.68 655.62 447.78 662.25 445.22 C 664.87 444.09 667.91 442.14 668.01 438.97 C 667.89 436.10 665.24 434.22 662.89 433.08 C 657.78 430.83 651.93 430.50 646.50 431.64 M 651.18 451.22 C 647.85 451.72 643.93 454.79 645.30 458.53 C 648.26 464.74 659.62 464.58 661.88 457.89 C 662.57 452.43 655.51 450.16 651.18 451.22 Z" />
<path fill="#000000" opacity="1.00" d=" M 352.43 418.63 C 363.96 415.38 376.88 418.27 386.12 425.84 C 399.68 436.76 404.18 456.77 397.66 472.75 C 392.87 484.97 381.24 494.36 368.12 495.88 C 362.85 496.21 357.42 496.30 352.34 494.63 C 340.57 491.15 330.99 481.50 327.14 469.91 C 324.12 461.56 324.23 452.24 326.78 443.79 C 330.43 431.84 340.32 421.92 352.43 418.63 M 358.50 431.64 C 354.95 432.45 350.95 433.94 349.29 437.45 C 348.07 440.57 350.86 443.36 353.45 444.62 C 359.89 447.68 367.66 447.78 374.28 445.20 C 376.89 444.09 379.89 442.14 380.01 438.99 C 379.91 436.15 377.32 434.27 375.00 433.13 C 369.86 430.83 363.97 430.49 358.50 431.64 M 362.15 451.23 C 358.85 451.73 354.98 454.75 356.28 458.47 C 359.17 464.75 370.62 464.60 372.88 457.89 C 373.55 452.41 366.49 450.16 362.15 451.23 Z" />
<path fill="#000000" opacity="1.00" d=" M 449.54 574.35 C 469.52 562.61 492.68 555.49 515.99 556.36 C 534.99 556.63 553.55 563.30 569.26 573.80 C 571.80 575.66 574.81 577.17 576.55 579.90 C 577.63 583.22 576.12 586.25 573.07 587.74 C 570.52 586.46 568.10 584.95 565.81 583.27 C 549.42 571.58 529.09 565.50 508.97 566.38 C 489.65 567.07 470.84 573.45 454.15 583.01 C 450.48 584.93 447.31 588.54 442.77 587.63 C 441.84 585.77 440.02 583.85 440.93 581.61 C 442.41 577.92 446.47 576.44 449.54 574.35 Z" />
<path fill="#000000" opacity="1.00" d=" M 228.87 648.05 C 231.06 628.04 231.57 607.90 233.53 587.87 C 238.89 603.47 249.02 616.94 260.15 628.92 C 281.57 650.90 308.61 666.70 336.95 678.03 C 341.93 680.34 347.29 681.67 352.22 684.12 C 346.41 687.56 340.93 691.53 335.61 695.67 C 333.08 697.99 329.40 700.15 329.37 704.01 C 328.91 707.47 332.31 709.66 335.09 710.79 C 341.70 713.12 348.66 715.24 355.74 713.98 C 348.66 720.19 340.68 725.32 334.01 731.99 C 331.29 735.00 327.54 738.40 328.60 742.92 C 329.46 744.50 331.14 745.55 332.92 745.78 C 338.44 746.77 344.07 746.13 349.58 745.34 C 351.23 755.67 347.79 765.70 344.56 775.35 C 334.93 806.19 323.08 836.31 309.78 865.76 C 295.22 897.54 279.86 928.96 264.37 960.29 C 252.98 954.04 241.87 947.28 231.04 940.12 C 232.05 930.43 233.58 920.80 234.61 911.11 C 235.81 881.77 237.16 852.38 235.67 823.03 C 234.98 803.34 233.43 783.69 232.32 764.02 C 230.55 725.40 226.57 686.73 228.87 648.05 Z" />
<path fill="#000000" opacity="1.00" d=" M 790.69 588.60 C 792.85 605.00 792.72 621.64 794.65 638.08 C 796.23 653.98 796.52 669.99 795.93 685.96 C 795.70 703.66 794.61 721.32 793.38 738.97 C 791.40 783.65 786.66 828.28 788.33 873.04 C 788.76 885.86 789.11 898.68 789.76 911.50 C 791.05 921.04 792.15 930.60 793.31 940.17 C 782.41 947.22 771.42 954.17 759.92 960.21 C 733.24 905.38 705.17 850.91 685.57 793.03 C 682.15 782.06 678.05 771.30 675.30 760.13 C 673.97 755.32 674.42 750.30 674.73 745.40 C 680.15 746.07 685.67 746.72 691.11 745.87 C 693.05 745.68 694.48 744.23 696.00 743.16 C 695.92 740.62 695.59 737.98 693.83 736.01 C 686.86 727.16 676.96 721.39 668.64 713.97 C 676.46 715.23 684.39 712.91 691.47 709.72 C 695.61 707.91 696.06 702.09 692.79 699.25 C 686.48 693.38 679.28 688.49 671.94 684.01 C 699.15 674.20 725.76 661.65 748.35 643.32 C 766.38 628.72 782.28 610.46 790.69 588.60 Z" />
</g>
<g id="#ffffffff">
<path fill="#ffffff" opacity="1.00" d=" M 358.50 431.64 C 363.97 430.49 369.86 430.83 375.00 433.13 C 377.32 434.27 379.91 436.15 380.01 438.99 C 379.89 442.14 376.89 444.09 374.28 445.20 C 367.66 447.78 359.89 447.68 353.45 444.62 C 350.86 443.36 348.07 440.57 349.29 437.45 C 350.95 433.94 354.95 432.45 358.50 431.64 Z" />
<path fill="#ffffff" opacity="1.00" d=" M 646.50 431.64 C 651.93 430.50 657.78 430.83 662.89 433.08 C 665.24 434.22 667.89 436.10 668.01 438.97 C 667.91 442.14 664.87 444.09 662.25 445.22 C 655.62 447.78 647.85 447.68 641.41 444.60 C 638.84 443.34 636.08 440.56 637.29 437.46 C 638.94 433.94 642.95 432.46 646.50 431.64 Z" />
<path fill="#ffffff" opacity="1.00" d=" M 362.15 451.23 C 366.49 450.16 373.55 452.41 372.88 457.89 C 370.62 464.60 359.17 464.75 356.28 458.47 C 354.98 454.75 358.85 451.73 362.15 451.23 Z" />
<path fill="#ffffff" opacity="1.00" d=" M 651.18 451.22 C 655.51 450.16 662.57 452.43 661.88 457.89 C 659.62 464.58 648.26 464.74 645.30 458.53 C 643.93 454.79 647.85 451.72 651.18 451.22 Z" />
</g>
</svg>
