<svg class="aqualogo" width="32" height="32" viewBox="0 0 1024 1024" version="1.1"><path d="M504 0L521 0C539 1 558 2 576 4 586 6 596 7 605 9 669 20 731 45 786 79 848 119 901 171 941 233 987 303 1016 385 1022 469 1023 480 1024 491 1024 502L1024 521C1023 544 1022 567 1018 590 1008 662 981 732 941 793 914 833 882 870 845 901 844 889 843 877 843 865 843 850 844 834 845 819 847 792 851 765 855 738 859 717 864 695 868 674 870 662 872 651 873 639 874 630 875 620 876 610 879 574 880 539 878 503 875 449 864 395 843 346 827 310 807 278 781 249 733 198 669 162 601 146 589 143 577 140 564 138 518 133 471 134 425 145 369 159 315 185 271 223 239 250 213 284 194 321 170 365 156 414 150 463 145 497 144 532 145 566 146 583 146 601 149 618 150 629 151 639 152 650 155 660 155 671 158 681 159 687 160 693 161 699 163 707 164 716 166 725 174 761 178 798 180 835 181 857 182 879 180 901 171 894 163 886 154 879 75 801 21 696 6 586 2 564 1 542 0 520L0 504C1 484 2 463 5 443 17 355 52 270 107 200 167 121 250 61 343 29 374 18 406 10 439 6 460 2 482 1 504 0ZM233 588C238 601 246 612 255 623 277 648 307 666 338 678 342 681 348 682 352 684 345 688 338 693 332 699 329 701 328 706 331 708 335 712 340 712 345 714 348 715 352 714 356 714 349 720 341 725 334 732 332 735 328 738 329 742 329 744 330 745 332 746 338 747 344 746 350 745 351 756 348 766 344 776 330 821 311 864 291 907 283 922 275 938 268 954 267 956 266 958 264 960 253 954 242 947 231 940 232 934 232 929 233 923 236 908 235 894 236 879 238 836 234 793 232 750 230 711 226 672 230 633 231 618 232 603 233 588ZM742 649C763 633 781 613 791 588 792 606 793 625 795 643 798 682 794 721 792 760 791 786 789 812 788 838 788 862 789 887 790 911 791 921 792 930 793 940 783 947 772 954 760 960 758 958 758 956 757 953 747 934 737 914 728 894 712 860 697 827 685 792 682 781 678 771 675 760 674 755 674 750 675 745 680 746 686 747 692 746 694 745 695 744 696 743 696 741 696 738 694 737 687 727 677 722 669 714 676 715 682 713 689 711 691 710 693 709 695 707 696 704 695 701 692 699 686 693 679 688 672 684 696 675 720 664 742 649Z"/></svg>